<svg width="75" height="22" viewBox="0 0 75 22" fill="none" xmlns="http://www.w3.org/2000/svg">
<path d="M71.706 15.6595V4.77224H74.2645V15.6595H71.706ZM72.9943 3.01214C72.571 3.01214 72.2141 2.86697 71.9238 2.57665C71.6334 2.27422 71.4883 1.91736 71.4883 1.50607C71.4883 1.07058 71.6334 0.713719 71.9238 0.435489C72.2262 0.145163 72.5831 0 72.9943 0C73.4298 0 73.7867 0.145163 74.0649 0.435489C74.3553 0.725816 74.5004 1.08268 74.5004 1.50607C74.5004 1.92946 74.3553 2.28632 74.0649 2.57665C73.7746 2.86697 73.4177 3.01214 72.9943 3.01214Z" fill="white"/>
<path d="M64.1657 15.8774C63.1738 15.8774 62.2665 15.6234 61.4439 15.1153C60.6213 14.6072 59.962 13.9238 59.4661 13.0649C58.9822 12.206 58.7402 11.2564 58.7402 10.2161C58.7402 9.17571 58.9822 8.22611 59.4661 7.36722C59.962 6.50834 60.6213 5.82487 61.4439 5.31679C62.2665 4.80872 63.1738 4.55469 64.1657 4.55469C64.8915 4.55469 65.5629 4.68775 66.1798 4.95389C66.8089 5.20792 67.3472 5.57083 67.7948 6.04261V4.77243H70.063V15.6597H67.7948V14.3895C67.3472 14.8492 66.8089 15.2121 66.1798 15.4782C65.5629 15.7443 64.8915 15.8774 64.1657 15.8774ZM64.4923 13.5911C65.0972 13.5911 65.6476 13.4399 66.1436 13.1375C66.6516 12.835 67.0508 12.4298 67.3411 11.9217C67.6436 11.4136 67.7948 10.8451 67.7948 10.2161C67.7948 9.59911 67.6436 9.0366 67.3411 8.52853C67.0508 8.00836 66.6577 7.59707 66.1617 7.29464C65.6657 6.99222 65.1093 6.84101 64.4923 6.84101C63.8875 6.84101 63.331 6.99222 62.8229 7.29464C62.327 7.59707 61.9278 8.00231 61.6253 8.51038C61.335 9.01845 61.1899 9.58701 61.1899 10.2161C61.1899 10.833 61.335 11.4016 61.6253 11.9217C61.9278 12.4298 62.327 12.835 62.8229 13.1375C63.3189 13.4399 63.8754 13.5911 64.4923 13.5911Z" fill="white"/>
<path d="M56.6289 15.9502C56.1571 15.9502 55.7579 15.7869 55.4313 15.4603C55.1047 15.1337 54.9414 14.7345 54.9414 14.2627C54.9414 13.7788 55.1047 13.3796 55.4313 13.0651C55.7579 12.7385 56.1571 12.5752 56.6289 12.5752C57.1249 12.5752 57.5301 12.7385 57.8447 13.0651C58.1713 13.3917 58.3346 13.7909 58.3346 14.2627C58.3346 14.7345 58.1713 15.1337 57.8447 15.4603C57.5301 15.7869 57.1249 15.9502 56.6289 15.9502Z" fill="white"/>
<path d="M39.0146 15.6595V4.77224H41.5731V15.6595H39.0146ZM40.3029 3.01214C39.8795 3.01214 39.5227 2.86697 39.2324 2.57665C38.942 2.27422 38.7969 1.91736 38.7969 1.50607C38.7969 1.07058 38.942 0.713719 39.2324 0.435489C39.5348 0.145163 39.8916 0 40.3029 0C40.7384 0 41.0953 0.145163 41.3735 0.435489C41.6638 0.725816 41.809 1.08268 41.809 1.50607C41.809 1.92946 41.6638 2.28632 41.3735 2.57665C41.0832 2.86697 40.7263 3.01214 40.3029 3.01214Z" fill="white"/>
<path d="M25.8438 15.7009L33.418 7.00057H26.1626V4.84424H38.0586L30.4844 13.5445H37.7757V15.7009H25.8438Z" fill="white"/>
<path d="M48.002 4.55469C48.7278 4.55469 49.3997 4.68797 50.0166 4.9541C50.6456 5.20813 51.1843 5.57123 51.6318 6.04297V4.77246H53.8994V15.7324C53.8994 16.9177 53.6152 17.9336 53.0469 18.7803C52.4904 19.6271 51.7459 20.2751 50.8145 20.7227C49.8831 21.1701 48.8792 21.3936 47.8027 21.3936C46.9681 21.3936 46.1877 21.2732 45.4619 21.0312C45.3075 20.9798 45.1579 20.922 45.0117 20.8623V18.1738C45.2211 18.337 45.4495 18.4855 45.6982 18.6172C46.3151 18.9558 47.0165 19.126 47.8027 19.126C48.964 19.126 49.8896 18.7803 50.5791 18.0908C51.2684 17.4135 51.6132 16.5308 51.6133 15.4424V14.4072C51.1658 14.8669 50.6334 15.23 50.0166 15.4961C49.3997 15.7501 48.7278 15.8779 48.002 15.8779C47.0102 15.8779 46.1028 15.6232 45.2803 15.1152C44.4579 14.6073 43.7986 13.924 43.3027 13.0654C42.8189 12.2065 42.5771 11.2562 42.5771 10.2158C42.5772 9.1756 42.8189 8.22599 43.3027 7.36719C43.7987 6.50836 44.4577 5.82446 45.2803 5.31641C46.1028 4.80841 47.0102 4.55475 48.002 4.55469ZM48.3291 6.84082C47.7243 6.84082 47.1673 6.9925 46.6592 7.29492C46.1634 7.59732 45.7643 8.0028 45.4619 8.51074C45.1717 9.01867 45.0264 9.587 45.0264 10.2158C45.0264 10.8328 45.1716 11.4017 45.4619 11.9219C45.7643 12.4299 46.1633 12.8353 46.6592 13.1377C47.1552 13.4401 47.7122 13.5908 48.3291 13.5908C48.9339 13.5908 49.4845 13.4401 49.9805 13.1377C50.4884 12.8353 50.8874 12.4299 51.1777 11.9219C51.4802 11.4138 51.6318 10.8449 51.6318 10.2158C51.6318 9.59899 51.4801 9.03631 51.1777 8.52832C50.8874 8.00826 50.4939 7.5973 49.998 7.29492C49.5021 6.99257 48.9459 6.84085 48.3291 6.84082Z" fill="white"/>
<path d="M10.2433 8.57768C10.5298 8.07801 11.2954 8.24138 11.3488 8.81359L11.9187 14.9207C11.9445 15.1971 12.1621 15.4179 12.4404 15.4499L24.1534 16.7988C24.8318 16.8769 24.8608 17.8423 24.1884 17.9603L3.94394 21.5102C3.44991 21.5968 3.07745 21.074 3.32528 20.6418L10.2433 8.57768Z" fill="white"/>
<path d="M20.7339 0.11741C21.2279 0.0307963 21.6004 0.553633 21.3526 0.985801L14.4343 13.0499C14.1478 13.5496 13.3822 13.3862 13.3288 12.814L12.7592 6.70688C12.7334 6.43047 12.5156 6.20969 12.2373 6.17764L0.524222 4.82859C-0.154078 4.7504 -0.183049 3.785 0.489416 3.66709L20.7339 0.11741Z" fill="white"/>
</svg>
